<mxfile host="app.diagrams.net" modified="2021-03-02T08:50:18.590Z" agent="5.0 (Windows NT 10.0; Win64; x64) AppleWebKit/537.36 (KHTML, like Gecko) Chrome/88.0.4324.190 Safari/537.36" etag="Ku7-wSDmGDXI9C1pQZRp" version="14.2.9" type="github">
  <diagram name="Page-1" id="10a91c8b-09ff-31b1-d368-03940ed4cc9e">
    <mxGraphModel dx="1673" dy="896" grid="1" gridSize="10" guides="1" tooltips="1" connect="1" arrows="1" fold="1" page="1" pageScale="1" pageWidth="1100" pageHeight="850" background="#ffffff" math="0" shadow="0">
      <root>
        <mxCell id="0" />
        <mxCell id="1" parent="0" />
        <mxCell id="62893188c0fa7362-1" value="JobExecTaskEnd" style="whiteSpace=wrap;html=1;rounded=1;shadow=1;labelBackgroundColor=none;strokeWidth=1;fontFamily=Verdana;fontSize=12;align=center;fillColor=#d5e8d4;strokeColor=#82b366;" parent="1" vertex="1">
          <mxGeometry x="340" y="50" width="120" height="60" as="geometry" />
        </mxCell>
        <mxCell id="CuRDBexWDcSO8Bb8UAhH-71" style="edgeStyle=orthogonalEdgeStyle;rounded=0;orthogonalLoop=1;jettySize=auto;html=1;exitX=0.5;exitY=0;exitDx=0;exitDy=0;entryX=0.5;entryY=1;entryDx=0;entryDy=0;strokeColor=#9AC7BF;" parent="1" source="62893188c0fa7362-2" target="62893188c0fa7362-1" edge="1">
          <mxGeometry relative="1" as="geometry" />
        </mxCell>
        <mxCell id="62893188c0fa7362-2" value="&lt;span&gt;StageExecTaskEnd&lt;/span&gt;" style="whiteSpace=wrap;html=1;rounded=1;shadow=1;labelBackgroundColor=none;strokeWidth=1;fontFamily=Verdana;fontSize=12;align=center;fillColor=#fff2cc;strokeColor=#d6b656;" parent="1" vertex="1">
          <mxGeometry x="160" y="170" width="120" height="60" as="geometry" />
        </mxCell>
        <mxCell id="CuRDBexWDcSO8Bb8UAhH-72" style="edgeStyle=orthogonalEdgeStyle;rounded=0;orthogonalLoop=1;jettySize=auto;html=1;exitX=0.5;exitY=0;exitDx=0;exitDy=0;strokeColor=#9AC7BF;" parent="1" source="62893188c0fa7362-3" edge="1">
          <mxGeometry relative="1" as="geometry">
            <mxPoint x="400" y="110" as="targetPoint" />
          </mxGeometry>
        </mxCell>
        <mxCell id="62893188c0fa7362-3" value="StageExecTaskEnd" style="whiteSpace=wrap;html=1;rounded=1;shadow=1;labelBackgroundColor=none;strokeWidth=1;fontFamily=Verdana;fontSize=12;align=center;fillColor=#fff2cc;strokeColor=#d6b656;" parent="1" vertex="1">
          <mxGeometry x="510" y="170" width="120" height="60" as="geometry" />
        </mxCell>
        <mxCell id="CuRDBexWDcSO8Bb8UAhH-73" style="edgeStyle=orthogonalEdgeStyle;rounded=0;orthogonalLoop=1;jettySize=auto;html=1;exitX=0.5;exitY=0;exitDx=0;exitDy=0;entryX=0.5;entryY=1;entryDx=0;entryDy=0;strokeColor=#9AC7BF;" parent="1" source="62893188c0fa7362-10" target="62893188c0fa7362-3" edge="1">
          <mxGeometry relative="1" as="geometry" />
        </mxCell>
        <mxCell id="62893188c0fa7362-10" value="CodeExecTask" style="whiteSpace=wrap;html=1;rounded=0;shadow=1;labelBackgroundColor=none;strokeWidth=2;fontFamily=Verdana;fontSize=12;align=center;fillColor=#ffe6cc;strokeColor=#d79b00;" parent="1" vertex="1">
          <mxGeometry x="510" y="280" width="120" height="60" as="geometry" />
        </mxCell>
        <mxCell id="CuRDBexWDcSO8Bb8UAhH-74" style="edgeStyle=orthogonalEdgeStyle;rounded=0;orthogonalLoop=1;jettySize=auto;html=1;exitX=0.5;exitY=0;exitDx=0;exitDy=0;strokeColor=#9AC7BF;" parent="1" source="62893188c0fa7362-11" target="62893188c0fa7362-10" edge="1">
          <mxGeometry relative="1" as="geometry" />
        </mxCell>
        <mxCell id="62893188c0fa7362-11" value="&lt;span&gt;StageExecTaskStart&lt;/span&gt;" style="whiteSpace=wrap;html=1;rounded=0;shadow=1;labelBackgroundColor=none;strokeWidth=2;fontFamily=Verdana;fontSize=12;align=center;fillColor=#fff2cc;strokeColor=#d6b656;" parent="1" vertex="1">
          <mxGeometry x="510" y="395" width="120" height="60" as="geometry" />
        </mxCell>
        <mxCell id="CuRDBexWDcSO8Bb8UAhH-70" style="edgeStyle=orthogonalEdgeStyle;rounded=0;orthogonalLoop=1;jettySize=auto;html=1;exitX=0.5;exitY=0;exitDx=0;exitDy=0;strokeColor=#9AC7BF;" parent="1" source="62893188c0fa7362-12" edge="1">
          <mxGeometry relative="1" as="geometry">
            <mxPoint x="220" y="230" as="targetPoint" />
          </mxGeometry>
        </mxCell>
        <mxCell id="62893188c0fa7362-12" value="&lt;span&gt;CodeExecTask&lt;/span&gt;" style="whiteSpace=wrap;html=1;rounded=1;shadow=1;labelBackgroundColor=none;strokeWidth=1;fontFamily=Verdana;fontSize=12;align=center;fillColor=#ffe6cc;strokeColor=#d79b00;" parent="1" vertex="1">
          <mxGeometry x="70" y="280" width="120" height="60" as="geometry" />
        </mxCell>
        <mxCell id="CuRDBexWDcSO8Bb8UAhH-69" style="edgeStyle=orthogonalEdgeStyle;rounded=0;orthogonalLoop=1;jettySize=auto;html=1;exitX=0.5;exitY=0;exitDx=0;exitDy=0;entryX=0.5;entryY=1;entryDx=0;entryDy=0;strokeColor=#9AC7BF;" parent="1" source="62893188c0fa7362-13" target="62893188c0fa7362-2" edge="1">
          <mxGeometry relative="1" as="geometry" />
        </mxCell>
        <mxCell id="62893188c0fa7362-13" value="CodeExecTask" style="whiteSpace=wrap;html=1;rounded=1;shadow=1;labelBackgroundColor=none;strokeWidth=1;fontFamily=Verdana;fontSize=12;align=center;fillColor=#ffe6cc;strokeColor=#d79b00;" parent="1" vertex="1">
          <mxGeometry x="250" y="280" width="120" height="60" as="geometry" />
        </mxCell>
        <mxCell id="CuRDBexWDcSO8Bb8UAhH-67" style="edgeStyle=orthogonalEdgeStyle;rounded=0;orthogonalLoop=1;jettySize=auto;html=1;exitX=0.5;exitY=0;exitDx=0;exitDy=0;entryX=0.5;entryY=1;entryDx=0;entryDy=0;strokeColor=#9AC7BF;" parent="1" source="ATdARF7LjYDkbFCXHbay-8" target="62893188c0fa7362-12" edge="1">
          <mxGeometry relative="1" as="geometry" />
        </mxCell>
        <mxCell id="CuRDBexWDcSO8Bb8UAhH-68" style="edgeStyle=orthogonalEdgeStyle;rounded=0;orthogonalLoop=1;jettySize=auto;html=1;exitX=0.5;exitY=0;exitDx=0;exitDy=0;entryX=0.5;entryY=1;entryDx=0;entryDy=0;strokeColor=#9AC7BF;" parent="1" source="ATdARF7LjYDkbFCXHbay-8" target="62893188c0fa7362-13" edge="1">
          <mxGeometry relative="1" as="geometry" />
        </mxCell>
        <mxCell id="ATdARF7LjYDkbFCXHbay-8" value="&lt;span&gt;StageExecTaskStart&lt;/span&gt;" style="whiteSpace=wrap;html=1;rounded=0;shadow=1;labelBackgroundColor=none;strokeWidth=2;fontFamily=Verdana;fontSize=12;align=center;fillColor=#fff2cc;strokeColor=#d6b656;" parent="1" vertex="1">
          <mxGeometry x="160" y="395" width="120" height="60" as="geometry" />
        </mxCell>
        <mxCell id="CuRDBexWDcSO8Bb8UAhH-65" style="edgeStyle=orthogonalEdgeStyle;rounded=0;orthogonalLoop=1;jettySize=auto;html=1;exitX=0.5;exitY=0;exitDx=0;exitDy=0;entryX=0.5;entryY=1;entryDx=0;entryDy=0;strokeColor=#9AC7BF;" parent="1" source="ATdARF7LjYDkbFCXHbay-19" target="ATdARF7LjYDkbFCXHbay-8" edge="1">
          <mxGeometry relative="1" as="geometry" />
        </mxCell>
        <mxCell id="CuRDBexWDcSO8Bb8UAhH-66" style="edgeStyle=orthogonalEdgeStyle;rounded=0;orthogonalLoop=1;jettySize=auto;html=1;exitX=0.5;exitY=0;exitDx=0;exitDy=0;entryX=0.5;entryY=1;entryDx=0;entryDy=0;strokeColor=#9AC7BF;" parent="1" source="ATdARF7LjYDkbFCXHbay-19" target="62893188c0fa7362-11" edge="1">
          <mxGeometry relative="1" as="geometry" />
        </mxCell>
        <mxCell id="ATdARF7LjYDkbFCXHbay-19" value="JobExecTaskStart" style="whiteSpace=wrap;html=1;rounded=1;shadow=1;labelBackgroundColor=none;strokeWidth=1;fontFamily=Verdana;fontSize=12;align=center;fillColor=#d5e8d4;strokeColor=#82b366;" parent="1" vertex="1">
          <mxGeometry x="350" y="520" width="120" height="60" as="geometry" />
        </mxCell>
        <mxCell id="CuRDBexWDcSO8Bb8UAhH-3" value="&lt;b&gt;&lt;font style=&quot;font-size: 15px&quot;&gt;ComputationJob&lt;/font&gt;&lt;/b&gt;" style="text;html=1;align=center;verticalAlign=middle;resizable=0;points=[];autosize=1;" parent="1" vertex="1">
          <mxGeometry x="90" y="40" width="130" height="20" as="geometry" />
        </mxCell>
        <mxCell id="CuRDBexWDcSO8Bb8UAhH-4" value="&lt;span&gt;FunctionTask&lt;/span&gt;" style="whiteSpace=wrap;html=1;rounded=1;shadow=1;labelBackgroundColor=none;strokeWidth=1;fontFamily=Verdana;fontSize=12;align=center;fillColor=#ffe6cc;strokeColor=#d79b00;" parent="1" vertex="1">
          <mxGeometry x="830" y="180" width="120" height="60" as="geometry" />
        </mxCell>
        <mxCell id="CuRDBexWDcSO8Bb8UAhH-5" value="FunctionTask" style="whiteSpace=wrap;html=1;rounded=1;shadow=1;labelBackgroundColor=none;strokeWidth=1;fontFamily=Verdana;fontSize=12;align=center;fillColor=#ffe6cc;strokeColor=#d79b00;" parent="1" vertex="1">
          <mxGeometry x="1020" y="180" width="120" height="60" as="geometry" />
        </mxCell>
        <mxCell id="CuRDBexWDcSO8Bb8UAhH-75" style="edgeStyle=orthogonalEdgeStyle;rounded=0;orthogonalLoop=1;jettySize=auto;html=1;exitX=0.5;exitY=0;exitDx=0;exitDy=0;entryX=0.5;entryY=1;entryDx=0;entryDy=0;strokeColor=#9AC7BF;" parent="1" source="CuRDBexWDcSO8Bb8UAhH-6" target="CuRDBexWDcSO8Bb8UAhH-4" edge="1">
          <mxGeometry relative="1" as="geometry" />
        </mxCell>
        <mxCell id="CuRDBexWDcSO8Bb8UAhH-76" style="edgeStyle=orthogonalEdgeStyle;rounded=0;orthogonalLoop=1;jettySize=auto;html=1;exitX=0.5;exitY=0;exitDx=0;exitDy=0;entryX=0.5;entryY=1;entryDx=0;entryDy=0;strokeColor=#9AC7BF;" parent="1" source="CuRDBexWDcSO8Bb8UAhH-6" target="CuRDBexWDcSO8Bb8UAhH-5" edge="1">
          <mxGeometry relative="1" as="geometry" />
        </mxCell>
        <mxCell id="CuRDBexWDcSO8Bb8UAhH-6" value="&lt;span&gt;FunctionTask&lt;/span&gt;" style="whiteSpace=wrap;html=1;rounded=1;shadow=1;labelBackgroundColor=none;strokeWidth=1;fontFamily=Verdana;fontSize=12;align=center;fillColor=#ffe6cc;strokeColor=#d79b00;" parent="1" vertex="1">
          <mxGeometry x="920" y="315" width="120" height="60" as="geometry" />
        </mxCell>
        <mxCell id="CuRDBexWDcSO8Bb8UAhH-77" style="edgeStyle=orthogonalEdgeStyle;rounded=0;orthogonalLoop=1;jettySize=auto;html=1;exitX=0.5;exitY=0;exitDx=0;exitDy=0;entryX=0.5;entryY=1;entryDx=0;entryDy=0;strokeColor=#9AC7BF;" parent="1" source="CuRDBexWDcSO8Bb8UAhH-7" target="CuRDBexWDcSO8Bb8UAhH-6" edge="1">
          <mxGeometry relative="1" as="geometry" />
        </mxCell>
        <mxCell id="CuRDBexWDcSO8Bb8UAhH-7" value="&lt;span&gt;FunctionTask&lt;/span&gt;" style="whiteSpace=wrap;html=1;rounded=1;shadow=1;labelBackgroundColor=none;strokeWidth=1;fontFamily=Verdana;fontSize=12;align=center;fillColor=#ffe6cc;strokeColor=#d79b00;" parent="1" vertex="1">
          <mxGeometry x="920" y="425" width="120" height="60" as="geometry" />
        </mxCell>
        <mxCell id="CuRDBexWDcSO8Bb8UAhH-12" value="&lt;b&gt;&lt;font style=&quot;font-size: 15px&quot;&gt;OnlyTask&lt;/font&gt;&lt;/b&gt;" style="text;html=1;align=center;verticalAlign=middle;resizable=0;points=[];autosize=1;" parent="1" vertex="1">
          <mxGeometry x="805" y="70" width="80" height="20" as="geometry" />
        </mxCell>
        <mxCell id="CuRDBexWDcSO8Bb8UAhH-85" style="edgeStyle=orthogonalEdgeStyle;rounded=0;orthogonalLoop=1;jettySize=auto;html=1;exitX=0.5;exitY=0;exitDx=0;exitDy=0;entryX=0.5;entryY=1;entryDx=0;entryDy=0;strokeColor=#9AC7BF;" parent="1" source="CuRDBexWDcSO8Bb8UAhH-15" target="CuRDBexWDcSO8Bb8UAhH-33" edge="1">
          <mxGeometry relative="1" as="geometry" />
        </mxCell>
        <mxCell id="CuRDBexWDcSO8Bb8UAhH-15" value="&lt;span&gt;StageExecTaskEnd&lt;/span&gt;" style="whiteSpace=wrap;html=1;rounded=1;shadow=1;labelBackgroundColor=none;strokeWidth=1;fontFamily=Verdana;fontSize=12;align=center;fillColor=#fff2cc;strokeColor=#d6b656;" parent="1" vertex="1">
          <mxGeometry x="310" y="740" width="120" height="60" as="geometry" />
        </mxCell>
        <mxCell id="CuRDBexWDcSO8Bb8UAhH-84" style="edgeStyle=orthogonalEdgeStyle;rounded=0;orthogonalLoop=1;jettySize=auto;html=1;exitX=0.5;exitY=0;exitDx=0;exitDy=0;entryX=0.5;entryY=1;entryDx=0;entryDy=0;strokeColor=#9AC7BF;" parent="1" source="CuRDBexWDcSO8Bb8UAhH-18" target="CuRDBexWDcSO8Bb8UAhH-15" edge="1">
          <mxGeometry relative="1" as="geometry" />
        </mxCell>
        <mxCell id="CuRDBexWDcSO8Bb8UAhH-18" value="TransactionTask" style="whiteSpace=wrap;html=1;rounded=1;shadow=1;labelBackgroundColor=none;strokeWidth=1;fontFamily=Verdana;fontSize=12;align=center;fillColor=#fff2cc;strokeColor=#d6b656;" parent="1" vertex="1">
          <mxGeometry x="310" y="824" width="120" height="60" as="geometry" />
        </mxCell>
        <mxCell id="CuRDBexWDcSO8Bb8UAhH-83" style="edgeStyle=orthogonalEdgeStyle;rounded=0;orthogonalLoop=1;jettySize=auto;html=1;exitX=0.5;exitY=0;exitDx=0;exitDy=0;strokeColor=#9AC7BF;" parent="1" source="CuRDBexWDcSO8Bb8UAhH-26" edge="1">
          <mxGeometry relative="1" as="geometry">
            <mxPoint x="370" y="880" as="targetPoint" />
          </mxGeometry>
        </mxCell>
        <mxCell id="CuRDBexWDcSO8Bb8UAhH-26" value="&lt;span&gt;CodeExecTask&lt;/span&gt;" style="whiteSpace=wrap;html=1;rounded=1;shadow=1;labelBackgroundColor=none;strokeWidth=1;fontFamily=Verdana;fontSize=12;align=center;fillColor=#ffe6cc;strokeColor=#d79b00;" parent="1" vertex="1">
          <mxGeometry x="220" y="930" width="120" height="60" as="geometry" />
        </mxCell>
        <mxCell id="CuRDBexWDcSO8Bb8UAhH-82" style="edgeStyle=orthogonalEdgeStyle;rounded=0;orthogonalLoop=1;jettySize=auto;html=1;exitX=0.5;exitY=0;exitDx=0;exitDy=0;entryX=0.5;entryY=1;entryDx=0;entryDy=0;strokeColor=#9AC7BF;" parent="1" source="CuRDBexWDcSO8Bb8UAhH-28" target="CuRDBexWDcSO8Bb8UAhH-18" edge="1">
          <mxGeometry relative="1" as="geometry" />
        </mxCell>
        <mxCell id="CuRDBexWDcSO8Bb8UAhH-28" value="CodeExecTask" style="whiteSpace=wrap;html=1;rounded=1;shadow=1;labelBackgroundColor=none;strokeWidth=1;fontFamily=Verdana;fontSize=12;align=center;fillColor=#ffe6cc;strokeColor=#d79b00;" parent="1" vertex="1">
          <mxGeometry x="400" y="930" width="120" height="60" as="geometry" />
        </mxCell>
        <mxCell id="CuRDBexWDcSO8Bb8UAhH-80" style="edgeStyle=orthogonalEdgeStyle;rounded=0;orthogonalLoop=1;jettySize=auto;html=1;exitX=0.5;exitY=0;exitDx=0;exitDy=0;entryX=0.5;entryY=1;entryDx=0;entryDy=0;strokeColor=#9AC7BF;" parent="1" source="CuRDBexWDcSO8Bb8UAhH-30" target="CuRDBexWDcSO8Bb8UAhH-26" edge="1">
          <mxGeometry relative="1" as="geometry" />
        </mxCell>
        <mxCell id="CuRDBexWDcSO8Bb8UAhH-81" style="edgeStyle=orthogonalEdgeStyle;rounded=0;orthogonalLoop=1;jettySize=auto;html=1;exitX=0.5;exitY=0;exitDx=0;exitDy=0;entryX=0.5;entryY=1;entryDx=0;entryDy=0;strokeColor=#9AC7BF;" parent="1" source="CuRDBexWDcSO8Bb8UAhH-30" target="CuRDBexWDcSO8Bb8UAhH-28" edge="1">
          <mxGeometry relative="1" as="geometry" />
        </mxCell>
        <mxCell id="CuRDBexWDcSO8Bb8UAhH-30" value="TransactionTask" style="whiteSpace=wrap;html=1;rounded=0;shadow=1;labelBackgroundColor=none;strokeWidth=2;fontFamily=Verdana;fontSize=12;align=center;fillColor=#fff2cc;strokeColor=#d6b656;" parent="1" vertex="1">
          <mxGeometry x="310" y="1045" width="120" height="60" as="geometry" />
        </mxCell>
        <mxCell id="CuRDBexWDcSO8Bb8UAhH-79" style="edgeStyle=orthogonalEdgeStyle;rounded=0;orthogonalLoop=1;jettySize=auto;html=1;exitX=0.5;exitY=0;exitDx=0;exitDy=0;entryX=0.5;entryY=1;entryDx=0;entryDy=0;strokeColor=#9AC7BF;" parent="1" source="CuRDBexWDcSO8Bb8UAhH-31" target="CuRDBexWDcSO8Bb8UAhH-30" edge="1">
          <mxGeometry relative="1" as="geometry" />
        </mxCell>
        <mxCell id="CuRDBexWDcSO8Bb8UAhH-31" value="StageExecTaskStart" style="whiteSpace=wrap;html=1;rounded=1;shadow=1;labelBackgroundColor=none;strokeWidth=1;fontFamily=Verdana;fontSize=12;align=center;fillColor=#fff2cc;strokeColor=#d6b656;" parent="1" vertex="1">
          <mxGeometry x="310" y="1130" width="120" height="60" as="geometry" />
        </mxCell>
        <mxCell id="CuRDBexWDcSO8Bb8UAhH-32" value="&lt;b&gt;&lt;font style=&quot;font-size: 15px&quot;&gt;TransactionJob&lt;/font&gt;&lt;/b&gt;" style="text;html=1;align=center;verticalAlign=middle;resizable=0;points=[];autosize=1;" parent="1" vertex="1">
          <mxGeometry x="110" y="630" width="130" height="20" as="geometry" />
        </mxCell>
        <mxCell id="CuRDBexWDcSO8Bb8UAhH-33" value="JobExecTaskEnd" style="whiteSpace=wrap;html=1;rounded=1;shadow=1;labelBackgroundColor=none;strokeWidth=1;fontFamily=Verdana;fontSize=12;align=center;fillColor=#d5e8d4;strokeColor=#82b366;" parent="1" vertex="1">
          <mxGeometry x="310" y="650" width="120" height="60" as="geometry" />
        </mxCell>
        <mxCell id="CuRDBexWDcSO8Bb8UAhH-78" style="edgeStyle=orthogonalEdgeStyle;rounded=0;orthogonalLoop=1;jettySize=auto;html=1;exitX=0.5;exitY=0;exitDx=0;exitDy=0;entryX=0.5;entryY=1;entryDx=0;entryDy=0;strokeColor=#9AC7BF;" parent="1" source="CuRDBexWDcSO8Bb8UAhH-35" target="CuRDBexWDcSO8Bb8UAhH-31" edge="1">
          <mxGeometry relative="1" as="geometry" />
        </mxCell>
        <mxCell id="CuRDBexWDcSO8Bb8UAhH-35" value="JobExecTaskStart" style="whiteSpace=wrap;html=1;rounded=1;shadow=1;labelBackgroundColor=none;strokeWidth=1;fontFamily=Verdana;fontSize=12;align=center;fillColor=#d5e8d4;strokeColor=#82b366;" parent="1" vertex="1">
          <mxGeometry x="310" y="1215" width="120" height="60" as="geometry" />
        </mxCell>
        <mxCell id="CuRDBexWDcSO8Bb8UAhH-40" value="JobExecTaskEnd" style="whiteSpace=wrap;html=1;rounded=1;shadow=1;labelBackgroundColor=none;strokeWidth=1;fontFamily=Verdana;fontSize=12;align=center;fillColor=#d5e8d4;strokeColor=#82b366;" parent="1" vertex="1">
          <mxGeometry x="1030" y="640" width="120" height="60" as="geometry" />
        </mxCell>
        <mxCell id="CuRDBexWDcSO8Bb8UAhH-92" style="edgeStyle=orthogonalEdgeStyle;rounded=0;orthogonalLoop=1;jettySize=auto;html=1;exitX=0.5;exitY=0;exitDx=0;exitDy=0;entryX=0.5;entryY=1;entryDx=0;entryDy=0;strokeColor=#9AC7BF;" parent="1" source="CuRDBexWDcSO8Bb8UAhH-43" target="CuRDBexWDcSO8Bb8UAhH-40" edge="1">
          <mxGeometry relative="1" as="geometry" />
        </mxCell>
        <mxCell id="CuRDBexWDcSO8Bb8UAhH-43" value="&lt;span&gt;StageExecTaskEnd&lt;/span&gt;" style="whiteSpace=wrap;html=1;rounded=1;shadow=1;labelBackgroundColor=none;strokeWidth=1;fontFamily=Verdana;fontSize=12;align=center;fillColor=#fff2cc;strokeColor=#d6b656;" parent="1" vertex="1">
          <mxGeometry x="850" y="760" width="120" height="60" as="geometry" />
        </mxCell>
        <mxCell id="CuRDBexWDcSO8Bb8UAhH-91" style="edgeStyle=orthogonalEdgeStyle;rounded=0;orthogonalLoop=1;jettySize=auto;html=1;exitX=0.5;exitY=0;exitDx=0;exitDy=0;entryX=0.5;entryY=1;entryDx=0;entryDy=0;strokeColor=#9AC7BF;" parent="1" source="CuRDBexWDcSO8Bb8UAhH-45" target="CuRDBexWDcSO8Bb8UAhH-40" edge="1">
          <mxGeometry relative="1" as="geometry" />
        </mxCell>
        <mxCell id="CuRDBexWDcSO8Bb8UAhH-45" value="StageExecTaskEnd" style="whiteSpace=wrap;html=1;rounded=1;shadow=1;labelBackgroundColor=none;strokeWidth=1;fontFamily=Verdana;fontSize=12;align=center;fillColor=#fff2cc;strokeColor=#d6b656;" parent="1" vertex="1">
          <mxGeometry x="1200" y="760" width="120" height="60" as="geometry" />
        </mxCell>
        <mxCell id="CuRDBexWDcSO8Bb8UAhH-90" style="edgeStyle=orthogonalEdgeStyle;rounded=0;orthogonalLoop=1;jettySize=auto;html=1;exitX=0.5;exitY=0;exitDx=0;exitDy=0;entryX=0.5;entryY=1;entryDx=0;entryDy=0;strokeColor=#9AC7BF;" parent="1" source="CuRDBexWDcSO8Bb8UAhH-47" target="CuRDBexWDcSO8Bb8UAhH-45" edge="1">
          <mxGeometry relative="1" as="geometry" />
        </mxCell>
        <mxCell id="CuRDBexWDcSO8Bb8UAhH-47" value="CodeExecTask" style="whiteSpace=wrap;html=1;rounded=0;shadow=1;labelBackgroundColor=none;strokeWidth=2;fontFamily=Verdana;fontSize=12;align=center;fillColor=#ffe6cc;strokeColor=#d79b00;" parent="1" vertex="1">
          <mxGeometry x="1200" y="840" width="120" height="60" as="geometry" />
        </mxCell>
        <mxCell id="CuRDBexWDcSO8Bb8UAhH-62" style="edgeStyle=orthogonalEdgeStyle;rounded=0;orthogonalLoop=1;jettySize=auto;html=1;exitX=1;exitY=0.5;exitDx=0;exitDy=0;entryX=0.5;entryY=1;entryDx=0;entryDy=0;strokeColor=#9AC7BF;" parent="1" source="CuRDBexWDcSO8Bb8UAhH-49" target="CuRDBexWDcSO8Bb8UAhH-61" edge="1">
          <mxGeometry relative="1" as="geometry" />
        </mxCell>
        <mxCell id="CuRDBexWDcSO8Bb8UAhH-88" style="edgeStyle=orthogonalEdgeStyle;rounded=0;orthogonalLoop=1;jettySize=auto;html=1;exitX=0.5;exitY=0;exitDx=0;exitDy=0;entryX=0.5;entryY=1;entryDx=0;entryDy=0;strokeColor=#9AC7BF;" parent="1" source="CuRDBexWDcSO8Bb8UAhH-49" target="CuRDBexWDcSO8Bb8UAhH-58" edge="1">
          <mxGeometry relative="1" as="geometry" />
        </mxCell>
        <mxCell id="CuRDBexWDcSO8Bb8UAhH-49" value="&lt;span&gt;StageExecTaskStart&lt;/span&gt;" style="whiteSpace=wrap;html=1;rounded=0;shadow=1;labelBackgroundColor=none;strokeWidth=2;fontFamily=Verdana;fontSize=12;align=center;fillColor=#fff2cc;strokeColor=#d6b656;" parent="1" vertex="1">
          <mxGeometry x="1200" y="1010" width="120" height="60" as="geometry" />
        </mxCell>
        <mxCell id="CuRDBexWDcSO8Bb8UAhH-93" style="edgeStyle=orthogonalEdgeStyle;rounded=0;orthogonalLoop=1;jettySize=auto;html=1;exitX=0.5;exitY=0;exitDx=0;exitDy=0;entryX=0.5;entryY=1;entryDx=0;entryDy=0;strokeColor=#9AC7BF;" parent="1" source="CuRDBexWDcSO8Bb8UAhH-51" target="CuRDBexWDcSO8Bb8UAhH-43" edge="1">
          <mxGeometry relative="1" as="geometry" />
        </mxCell>
        <mxCell id="CuRDBexWDcSO8Bb8UAhH-51" value="&lt;span&gt;CodeExecTask&lt;/span&gt;" style="whiteSpace=wrap;html=1;rounded=1;shadow=1;labelBackgroundColor=none;strokeWidth=1;fontFamily=Verdana;fontSize=12;align=center;fillColor=#ffe6cc;strokeColor=#d79b00;" parent="1" vertex="1">
          <mxGeometry x="760" y="870" width="120" height="60" as="geometry" />
        </mxCell>
        <mxCell id="CuRDBexWDcSO8Bb8UAhH-95" style="edgeStyle=orthogonalEdgeStyle;rounded=0;orthogonalLoop=1;jettySize=auto;html=1;exitX=0.5;exitY=0;exitDx=0;exitDy=0;entryX=0.5;entryY=1;entryDx=0;entryDy=0;strokeColor=#9AC7BF;" parent="1" source="CuRDBexWDcSO8Bb8UAhH-53" target="CuRDBexWDcSO8Bb8UAhH-43" edge="1">
          <mxGeometry relative="1" as="geometry" />
        </mxCell>
        <mxCell id="CuRDBexWDcSO8Bb8UAhH-53" value="CodeExecTask" style="whiteSpace=wrap;html=1;rounded=1;shadow=1;labelBackgroundColor=none;strokeWidth=1;fontFamily=Verdana;fontSize=12;align=center;fillColor=#ffe6cc;strokeColor=#d79b00;" parent="1" vertex="1">
          <mxGeometry x="940" y="870" width="120" height="60" as="geometry" />
        </mxCell>
        <mxCell id="CuRDBexWDcSO8Bb8UAhH-96" style="edgeStyle=orthogonalEdgeStyle;rounded=0;orthogonalLoop=1;jettySize=auto;html=1;exitX=0.5;exitY=0;exitDx=0;exitDy=0;entryX=0.5;entryY=1;entryDx=0;entryDy=0;strokeColor=#9AC7BF;" parent="1" source="CuRDBexWDcSO8Bb8UAhH-55" target="CuRDBexWDcSO8Bb8UAhH-51" edge="1">
          <mxGeometry relative="1" as="geometry" />
        </mxCell>
        <mxCell id="CuRDBexWDcSO8Bb8UAhH-97" style="edgeStyle=orthogonalEdgeStyle;rounded=0;orthogonalLoop=1;jettySize=auto;html=1;exitX=0.5;exitY=0;exitDx=0;exitDy=0;entryX=0.5;entryY=1;entryDx=0;entryDy=0;strokeColor=#9AC7BF;" parent="1" source="CuRDBexWDcSO8Bb8UAhH-55" target="CuRDBexWDcSO8Bb8UAhH-53" edge="1">
          <mxGeometry relative="1" as="geometry" />
        </mxCell>
        <mxCell id="CuRDBexWDcSO8Bb8UAhH-55" value="&lt;span&gt;StageExecTaskStart&lt;/span&gt;" style="whiteSpace=wrap;html=1;rounded=0;shadow=1;labelBackgroundColor=none;strokeWidth=2;fontFamily=Verdana;fontSize=12;align=center;fillColor=#fff2cc;strokeColor=#d6b656;" parent="1" vertex="1">
          <mxGeometry x="850" y="1010" width="120" height="60" as="geometry" />
        </mxCell>
        <mxCell id="CuRDBexWDcSO8Bb8UAhH-86" style="edgeStyle=orthogonalEdgeStyle;rounded=0;orthogonalLoop=1;jettySize=auto;html=1;exitX=0.5;exitY=0;exitDx=0;exitDy=0;entryX=0.5;entryY=1;entryDx=0;entryDy=0;strokeColor=#9AC7BF;" parent="1" source="CuRDBexWDcSO8Bb8UAhH-56" target="CuRDBexWDcSO8Bb8UAhH-55" edge="1">
          <mxGeometry relative="1" as="geometry" />
        </mxCell>
        <mxCell id="CuRDBexWDcSO8Bb8UAhH-87" style="edgeStyle=orthogonalEdgeStyle;rounded=0;orthogonalLoop=1;jettySize=auto;html=1;exitX=0.5;exitY=0;exitDx=0;exitDy=0;entryX=0.5;entryY=1;entryDx=0;entryDy=0;strokeColor=#9AC7BF;" parent="1" source="CuRDBexWDcSO8Bb8UAhH-56" target="CuRDBexWDcSO8Bb8UAhH-49" edge="1">
          <mxGeometry relative="1" as="geometry" />
        </mxCell>
        <mxCell id="CuRDBexWDcSO8Bb8UAhH-56" value="JobExecTaskStart" style="whiteSpace=wrap;html=1;rounded=1;shadow=1;labelBackgroundColor=none;strokeWidth=1;fontFamily=Verdana;fontSize=12;align=center;fillColor=#d5e8d4;strokeColor=#82b366;" parent="1" vertex="1">
          <mxGeometry x="1040" y="1110" width="120" height="60" as="geometry" />
        </mxCell>
        <mxCell id="CuRDBexWDcSO8Bb8UAhH-57" value="&lt;b&gt;&lt;font style=&quot;font-size: 15px&quot;&gt;CacheJob&lt;/font&gt;&lt;/b&gt;" style="text;html=1;align=center;verticalAlign=middle;resizable=0;points=[];autosize=1;" parent="1" vertex="1">
          <mxGeometry x="800" y="630" width="90" height="20" as="geometry" />
        </mxCell>
        <mxCell id="CuRDBexWDcSO8Bb8UAhH-89" style="edgeStyle=orthogonalEdgeStyle;rounded=0;orthogonalLoop=1;jettySize=auto;html=1;exitX=0.5;exitY=0;exitDx=0;exitDy=0;entryX=0.5;entryY=1;entryDx=0;entryDy=0;strokeColor=#9AC7BF;" parent="1" source="CuRDBexWDcSO8Bb8UAhH-58" target="CuRDBexWDcSO8Bb8UAhH-47" edge="1">
          <mxGeometry relative="1" as="geometry" />
        </mxCell>
        <mxCell id="CuRDBexWDcSO8Bb8UAhH-58" value="CacheTask" style="whiteSpace=wrap;html=1;rounded=0;shadow=1;labelBackgroundColor=none;strokeWidth=2;fontFamily=Verdana;fontSize=12;align=center;fillColor=#fa6800;strokeColor=#C73500;fontColor=#ffffff;" parent="1" vertex="1">
          <mxGeometry x="1200" y="930" width="120" height="60" as="geometry" />
        </mxCell>
        <mxCell id="CuRDBexWDcSO8Bb8UAhH-63" style="edgeStyle=orthogonalEdgeStyle;rounded=0;orthogonalLoop=1;jettySize=auto;html=1;exitX=0.5;exitY=0;exitDx=0;exitDy=0;entryX=1;entryY=0.5;entryDx=0;entryDy=0;strokeColor=#9AC7BF;" parent="1" source="CuRDBexWDcSO8Bb8UAhH-61" target="CuRDBexWDcSO8Bb8UAhH-45" edge="1">
          <mxGeometry relative="1" as="geometry" />
        </mxCell>
        <mxCell id="CuRDBexWDcSO8Bb8UAhH-61" value="CacheTask" style="whiteSpace=wrap;html=1;rounded=0;shadow=1;labelBackgroundColor=none;strokeWidth=2;fontFamily=Verdana;fontSize=12;align=center;fillColor=#cdeb8b;strokeColor=#36393d;" parent="1" vertex="1">
          <mxGeometry x="1350" y="930" width="120" height="60" as="geometry" />
        </mxCell>
        <mxCell id="CuRDBexWDcSO8Bb8UAhH-64" value="&lt;font style=&quot;font-size: 15px&quot;&gt;如果命中的cacheTask&lt;br&gt;执行成功则跳过对应的Task&lt;br&gt;否则执行对应的task&lt;/font&gt;" style="text;html=1;align=center;verticalAlign=middle;resizable=0;points=[];autosize=1;" parent="1" vertex="1">
          <mxGeometry x="1420" y="860" width="200" height="50" as="geometry" />
        </mxCell>
        <mxCell id="CuRDBexWDcSO8Bb8UAhH-98" value="JobExecTaskEnd" style="whiteSpace=wrap;html=1;rounded=1;shadow=1;labelBackgroundColor=none;strokeWidth=1;fontFamily=Verdana;fontSize=12;align=center;fillColor=#d5e8d4;strokeColor=#82b366;" parent="1" vertex="1">
          <mxGeometry x="1560" y="100" width="120" height="60" as="geometry" />
        </mxCell>
        <mxCell id="CuRDBexWDcSO8Bb8UAhH-99" style="edgeStyle=orthogonalEdgeStyle;rounded=0;orthogonalLoop=1;jettySize=auto;html=1;exitX=0.5;exitY=0;exitDx=0;exitDy=0;entryX=0.5;entryY=1;entryDx=0;entryDy=0;strokeColor=#9AC7BF;" parent="1" source="CuRDBexWDcSO8Bb8UAhH-100" target="CuRDBexWDcSO8Bb8UAhH-98" edge="1">
          <mxGeometry relative="1" as="geometry" />
        </mxCell>
        <mxCell id="CuRDBexWDcSO8Bb8UAhH-100" value="&lt;span&gt;StageExecTaskEnd&lt;/span&gt;" style="whiteSpace=wrap;html=1;rounded=1;shadow=1;labelBackgroundColor=none;strokeWidth=1;fontFamily=Verdana;fontSize=12;align=center;fillColor=#fff2cc;strokeColor=#d6b656;" parent="1" vertex="1">
          <mxGeometry x="1380" y="220" width="120" height="60" as="geometry" />
        </mxCell>
        <mxCell id="CuRDBexWDcSO8Bb8UAhH-101" style="edgeStyle=orthogonalEdgeStyle;rounded=0;orthogonalLoop=1;jettySize=auto;html=1;exitX=0.5;exitY=0;exitDx=0;exitDy=0;entryX=0.5;entryY=1;entryDx=0;entryDy=0;strokeColor=#9AC7BF;" parent="1" source="CuRDBexWDcSO8Bb8UAhH-102" target="CuRDBexWDcSO8Bb8UAhH-98" edge="1">
          <mxGeometry relative="1" as="geometry" />
        </mxCell>
        <mxCell id="CuRDBexWDcSO8Bb8UAhH-102" value="StageExecTaskEnd" style="whiteSpace=wrap;html=1;rounded=1;shadow=1;labelBackgroundColor=none;strokeWidth=1;fontFamily=Verdana;fontSize=12;align=center;fillColor=#fff2cc;strokeColor=#d6b656;" parent="1" vertex="1">
          <mxGeometry x="1730" y="220" width="120" height="60" as="geometry" />
        </mxCell>
        <mxCell id="CuRDBexWDcSO8Bb8UAhH-104" value="CodeExecTask" style="whiteSpace=wrap;html=1;rounded=0;shadow=1;labelBackgroundColor=none;strokeWidth=2;fontFamily=Verdana;fontSize=12;align=center;fillColor=#fa6800;strokeColor=#C73500;fontColor=#ffffff;" parent="1" vertex="1">
          <mxGeometry x="1730" y="300" width="120" height="60" as="geometry" />
        </mxCell>
        <mxCell id="CuRDBexWDcSO8Bb8UAhH-106" style="edgeStyle=orthogonalEdgeStyle;rounded=0;orthogonalLoop=1;jettySize=auto;html=1;exitX=0.5;exitY=0;exitDx=0;exitDy=0;entryX=0.5;entryY=1;entryDx=0;entryDy=0;strokeColor=#9AC7BF;" parent="1" source="CuRDBexWDcSO8Bb8UAhH-107" target="CuRDBexWDcSO8Bb8UAhH-120" edge="1">
          <mxGeometry relative="1" as="geometry" />
        </mxCell>
        <mxCell id="CuRDBexWDcSO8Bb8UAhH-127" style="edgeStyle=orthogonalEdgeStyle;rounded=0;orthogonalLoop=1;jettySize=auto;html=1;exitX=1;exitY=0.5;exitDx=0;exitDy=0;entryX=0.5;entryY=1;entryDx=0;entryDy=0;strokeColor=#9AC7BF;" parent="1" source="CuRDBexWDcSO8Bb8UAhH-107" target="CuRDBexWDcSO8Bb8UAhH-124" edge="1">
          <mxGeometry relative="1" as="geometry" />
        </mxCell>
        <mxCell id="CuRDBexWDcSO8Bb8UAhH-107" value="&lt;span&gt;StageExecTaskStart&lt;/span&gt;" style="whiteSpace=wrap;html=1;rounded=0;shadow=1;labelBackgroundColor=none;strokeWidth=2;fontFamily=Verdana;fontSize=12;align=center;fillColor=#fff2cc;strokeColor=#d6b656;" parent="1" vertex="1">
          <mxGeometry x="1730" y="470" width="120" height="60" as="geometry" />
        </mxCell>
        <mxCell id="CuRDBexWDcSO8Bb8UAhH-108" style="edgeStyle=orthogonalEdgeStyle;rounded=0;orthogonalLoop=1;jettySize=auto;html=1;exitX=0.5;exitY=0;exitDx=0;exitDy=0;entryX=0.5;entryY=1;entryDx=0;entryDy=0;strokeColor=#9AC7BF;" parent="1" source="CuRDBexWDcSO8Bb8UAhH-109" target="CuRDBexWDcSO8Bb8UAhH-100" edge="1">
          <mxGeometry relative="1" as="geometry" />
        </mxCell>
        <mxCell id="CuRDBexWDcSO8Bb8UAhH-109" value="&lt;span&gt;CodeExecTask&lt;/span&gt;" style="whiteSpace=wrap;html=1;rounded=1;shadow=1;labelBackgroundColor=none;strokeWidth=1;fontFamily=Verdana;fontSize=12;align=center;fillColor=#ffe6cc;strokeColor=#d79b00;" parent="1" vertex="1">
          <mxGeometry x="1290" y="330" width="120" height="60" as="geometry" />
        </mxCell>
        <mxCell id="CuRDBexWDcSO8Bb8UAhH-110" style="edgeStyle=orthogonalEdgeStyle;rounded=0;orthogonalLoop=1;jettySize=auto;html=1;exitX=0.5;exitY=0;exitDx=0;exitDy=0;entryX=0.5;entryY=1;entryDx=0;entryDy=0;strokeColor=#9AC7BF;" parent="1" source="CuRDBexWDcSO8Bb8UAhH-111" target="CuRDBexWDcSO8Bb8UAhH-100" edge="1">
          <mxGeometry relative="1" as="geometry" />
        </mxCell>
        <mxCell id="CuRDBexWDcSO8Bb8UAhH-111" value="CodeExecTask" style="whiteSpace=wrap;html=1;rounded=1;shadow=1;labelBackgroundColor=none;strokeWidth=1;fontFamily=Verdana;fontSize=12;align=center;fillColor=#ffe6cc;strokeColor=#d79b00;" parent="1" vertex="1">
          <mxGeometry x="1470" y="330" width="120" height="60" as="geometry" />
        </mxCell>
        <mxCell id="CuRDBexWDcSO8Bb8UAhH-112" style="edgeStyle=orthogonalEdgeStyle;rounded=0;orthogonalLoop=1;jettySize=auto;html=1;exitX=0.5;exitY=0;exitDx=0;exitDy=0;entryX=0.5;entryY=1;entryDx=0;entryDy=0;strokeColor=#9AC7BF;" parent="1" source="CuRDBexWDcSO8Bb8UAhH-114" target="CuRDBexWDcSO8Bb8UAhH-109" edge="1">
          <mxGeometry relative="1" as="geometry" />
        </mxCell>
        <mxCell id="CuRDBexWDcSO8Bb8UAhH-113" style="edgeStyle=orthogonalEdgeStyle;rounded=0;orthogonalLoop=1;jettySize=auto;html=1;exitX=0.5;exitY=0;exitDx=0;exitDy=0;entryX=0.5;entryY=1;entryDx=0;entryDy=0;strokeColor=#9AC7BF;" parent="1" source="CuRDBexWDcSO8Bb8UAhH-114" target="CuRDBexWDcSO8Bb8UAhH-111" edge="1">
          <mxGeometry relative="1" as="geometry" />
        </mxCell>
        <mxCell id="CuRDBexWDcSO8Bb8UAhH-114" value="&lt;span&gt;StageExecTaskStart&lt;/span&gt;" style="whiteSpace=wrap;html=1;rounded=0;shadow=1;labelBackgroundColor=none;strokeWidth=2;fontFamily=Verdana;fontSize=12;align=center;fillColor=#fff2cc;strokeColor=#d6b656;" parent="1" vertex="1">
          <mxGeometry x="1380" y="470" width="120" height="60" as="geometry" />
        </mxCell>
        <mxCell id="CuRDBexWDcSO8Bb8UAhH-115" style="edgeStyle=orthogonalEdgeStyle;rounded=0;orthogonalLoop=1;jettySize=auto;html=1;exitX=0.5;exitY=0;exitDx=0;exitDy=0;entryX=0.5;entryY=1;entryDx=0;entryDy=0;strokeColor=#9AC7BF;" parent="1" source="CuRDBexWDcSO8Bb8UAhH-117" target="CuRDBexWDcSO8Bb8UAhH-114" edge="1">
          <mxGeometry relative="1" as="geometry" />
        </mxCell>
        <mxCell id="CuRDBexWDcSO8Bb8UAhH-116" style="edgeStyle=orthogonalEdgeStyle;rounded=0;orthogonalLoop=1;jettySize=auto;html=1;exitX=0.5;exitY=0;exitDx=0;exitDy=0;entryX=0.5;entryY=1;entryDx=0;entryDy=0;strokeColor=#9AC7BF;" parent="1" source="CuRDBexWDcSO8Bb8UAhH-117" target="CuRDBexWDcSO8Bb8UAhH-107" edge="1">
          <mxGeometry relative="1" as="geometry" />
        </mxCell>
        <mxCell id="CuRDBexWDcSO8Bb8UAhH-117" value="JobExecTaskStart" style="whiteSpace=wrap;html=1;rounded=1;shadow=1;labelBackgroundColor=none;strokeWidth=1;fontFamily=Verdana;fontSize=12;align=center;fillColor=#d5e8d4;strokeColor=#82b366;" parent="1" vertex="1">
          <mxGeometry x="1570" y="570" width="120" height="60" as="geometry" />
        </mxCell>
        <mxCell id="CuRDBexWDcSO8Bb8UAhH-118" value="&lt;b&gt;&lt;font style=&quot;font-size: 15px&quot;&gt;Reheat&lt;/font&gt;&lt;/b&gt;" style="text;html=1;align=center;verticalAlign=middle;resizable=0;points=[];autosize=1;" parent="1" vertex="1">
          <mxGeometry x="1340" y="90" width="70" height="20" as="geometry" />
        </mxCell>
        <mxCell id="CuRDBexWDcSO8Bb8UAhH-119" style="edgeStyle=orthogonalEdgeStyle;rounded=0;orthogonalLoop=1;jettySize=auto;html=1;exitX=0.5;exitY=0;exitDx=0;exitDy=0;entryX=0.5;entryY=1;entryDx=0;entryDy=0;strokeColor=#9AC7BF;" parent="1" source="CuRDBexWDcSO8Bb8UAhH-120" target="CuRDBexWDcSO8Bb8UAhH-104" edge="1">
          <mxGeometry relative="1" as="geometry" />
        </mxCell>
        <mxCell id="CuRDBexWDcSO8Bb8UAhH-120" value="CacheTask" style="whiteSpace=wrap;html=1;rounded=0;shadow=1;labelBackgroundColor=none;strokeWidth=2;fontFamily=Verdana;fontSize=12;align=center;fillColor=#fa6800;strokeColor=#C73500;fontColor=#ffffff;" parent="1" vertex="1">
          <mxGeometry x="1730" y="390" width="120" height="60" as="geometry" />
        </mxCell>
        <mxCell id="CuRDBexWDcSO8Bb8UAhH-126" style="edgeStyle=orthogonalEdgeStyle;rounded=0;orthogonalLoop=1;jettySize=auto;html=1;exitX=0.5;exitY=0;exitDx=0;exitDy=0;entryX=1;entryY=0.5;entryDx=0;entryDy=0;strokeColor=#9AC7BF;" parent="1" source="CuRDBexWDcSO8Bb8UAhH-124" target="CuRDBexWDcSO8Bb8UAhH-102" edge="1">
          <mxGeometry relative="1" as="geometry" />
        </mxCell>
        <mxCell id="CuRDBexWDcSO8Bb8UAhH-124" value="CodeExecTask" style="whiteSpace=wrap;html=1;rounded=1;shadow=1;labelBackgroundColor=none;strokeWidth=1;fontFamily=Verdana;fontSize=12;align=center;fillColor=#ffe6cc;strokeColor=#d79b00;" parent="1" vertex="1">
          <mxGeometry x="1900" y="300" width="120" height="60" as="geometry" />
        </mxCell>
        <mxCell id="CuRDBexWDcSO8Bb8UAhH-128" value="Reheat调整DAG" style="text;html=1;align=center;verticalAlign=middle;resizable=0;points=[];autosize=1;" parent="1" vertex="1">
          <mxGeometry x="1960" y="375" width="100" height="20" as="geometry" />
        </mxCell>
        <mxCell id="_JYv_TNie-j4nXrY027b-1" value="CodeJob" style="whiteSpace=wrap;html=1;rounded=1;shadow=1;labelBackgroundColor=none;strokeWidth=1;fontFamily=Verdana;fontSize=12;align=center;fillColor=#d5e8d4;strokeColor=#82b366;" vertex="1" parent="1">
          <mxGeometry x="330" y="1430" width="120" height="60" as="geometry" />
        </mxCell>
        <mxCell id="_JYv_TNie-j4nXrY027b-3" value="&lt;span&gt;CodeStage&lt;/span&gt;" style="whiteSpace=wrap;html=1;rounded=1;shadow=1;labelBackgroundColor=none;strokeWidth=1;fontFamily=Verdana;fontSize=12;align=center;fillColor=#fff2cc;strokeColor=#d6b656;" vertex="1" parent="1">
          <mxGeometry x="330" y="1566" width="120" height="60" as="geometry" />
        </mxCell>
        <mxCell id="_JYv_TNie-j4nXrY027b-20" value="&lt;b&gt;&lt;font style=&quot;font-size: 15px&quot;&gt;AST&lt;/font&gt;&lt;/b&gt;" style="text;html=1;align=center;verticalAlign=middle;resizable=0;points=[];autosize=1;" vertex="1" parent="1">
          <mxGeometry x="120" y="1420" width="50" height="20" as="geometry" />
        </mxCell>
        <mxCell id="_JYv_TNie-j4nXrY027b-21" value="JobTask(END)" style="whiteSpace=wrap;html=1;rounded=1;shadow=1;labelBackgroundColor=none;strokeWidth=1;fontFamily=Verdana;fontSize=12;align=center;fillColor=#d5e8d4;strokeColor=#82b366;" vertex="1" parent="1">
          <mxGeometry x="940" y="1430" width="120" height="60" as="geometry" />
        </mxCell>
        <mxCell id="_JYv_TNie-j4nXrY027b-23" value="&lt;span&gt;StageTask(END)&lt;/span&gt;" style="whiteSpace=wrap;html=1;rounded=1;shadow=1;labelBackgroundColor=none;strokeWidth=1;fontFamily=Verdana;fontSize=12;align=center;fillColor=#fff2cc;strokeColor=#d6b656;" vertex="1" parent="1">
          <mxGeometry x="940" y="1566" width="120" height="60" as="geometry" />
        </mxCell>
        <mxCell id="_JYv_TNie-j4nXrY027b-24" value="&lt;b&gt;&lt;font style=&quot;font-size: 15px&quot;&gt;Logical&lt;/font&gt;&lt;/b&gt;" style="text;html=1;align=center;verticalAlign=middle;resizable=0;points=[];autosize=1;" vertex="1" parent="1">
          <mxGeometry x="720" y="1420" width="70" height="20" as="geometry" />
        </mxCell>
        <mxCell id="_JYv_TNie-j4nXrY027b-25" value="&lt;span&gt;CodeLogicalTask&lt;/span&gt;" style="whiteSpace=wrap;html=1;rounded=1;shadow=1;labelBackgroundColor=none;strokeWidth=1;fontFamily=Verdana;fontSize=12;align=center;fillColor=#ffe6cc;strokeColor=#d79b00;" vertex="1" parent="1">
          <mxGeometry x="940" y="1700" width="120" height="60" as="geometry" />
        </mxCell>
        <mxCell id="_JYv_TNie-j4nXrY027b-26" style="edgeStyle=orthogonalEdgeStyle;rounded=0;orthogonalLoop=1;jettySize=auto;html=1;exitX=0.5;exitY=0;exitDx=0;exitDy=0;strokeColor=#9AC7BF;" edge="1" parent="1" target="_JYv_TNie-j4nXrY027b-25">
          <mxGeometry relative="1" as="geometry">
            <mxPoint x="999.29" y="1630" as="sourcePoint" />
            <mxPoint x="999.29" y="1540" as="targetPoint" />
            <Array as="points" />
          </mxGeometry>
        </mxCell>
        <mxCell id="_JYv_TNie-j4nXrY027b-27" style="edgeStyle=orthogonalEdgeStyle;rounded=0;orthogonalLoop=1;jettySize=auto;html=1;exitX=0.5;exitY=1;exitDx=0;exitDy=0;strokeColor=#9AC7BF;entryX=0.5;entryY=0;entryDx=0;entryDy=0;" edge="1" parent="1" source="_JYv_TNie-j4nXrY027b-21" target="_JYv_TNie-j4nXrY027b-23">
          <mxGeometry relative="1" as="geometry">
            <mxPoint x="990" y="1490" as="sourcePoint" />
            <mxPoint x="990.71" y="1560" as="targetPoint" />
            <Array as="points" />
          </mxGeometry>
        </mxCell>
        <mxCell id="_JYv_TNie-j4nXrY027b-28" style="edgeStyle=orthogonalEdgeStyle;rounded=0;orthogonalLoop=1;jettySize=auto;html=1;exitX=0.5;exitY=1;exitDx=0;exitDy=0;strokeColor=#9AC7BF;entryX=0.5;entryY=0;entryDx=0;entryDy=0;" edge="1" parent="1">
          <mxGeometry relative="1" as="geometry">
            <mxPoint x="389.5" y="1490" as="sourcePoint" />
            <mxPoint x="389.5" y="1566" as="targetPoint" />
            <Array as="points">
              <mxPoint x="389.5" y="1520" />
              <mxPoint x="389.5" y="1520" />
            </Array>
          </mxGeometry>
        </mxCell>
        <mxCell id="_JYv_TNie-j4nXrY027b-29" value="&lt;span&gt;StageTask(Start)&lt;/span&gt;" style="whiteSpace=wrap;html=1;rounded=1;shadow=1;labelBackgroundColor=none;strokeWidth=1;fontFamily=Verdana;fontSize=12;align=center;fillColor=#fff2cc;strokeColor=#d6b656;" vertex="1" parent="1">
          <mxGeometry x="940" y="1830" width="120" height="60" as="geometry" />
        </mxCell>
        <mxCell id="_JYv_TNie-j4nXrY027b-31" style="edgeStyle=orthogonalEdgeStyle;rounded=0;orthogonalLoop=1;jettySize=auto;html=1;strokeColor=#9AC7BF;exitX=0.5;exitY=1;exitDx=0;exitDy=0;entryX=0.5;entryY=0;entryDx=0;entryDy=0;" edge="1" parent="1" source="_JYv_TNie-j4nXrY027b-25" target="_JYv_TNie-j4nXrY027b-29">
          <mxGeometry relative="1" as="geometry">
            <mxPoint x="996" y="1780" as="sourcePoint" />
            <mxPoint x="996" y="1830" as="targetPoint" />
            <Array as="points" />
          </mxGeometry>
        </mxCell>
        <mxCell id="_JYv_TNie-j4nXrY027b-32" value="JobTask(Start)" style="whiteSpace=wrap;html=1;rounded=1;shadow=1;labelBackgroundColor=none;strokeWidth=1;fontFamily=Verdana;fontSize=12;align=center;fillColor=#d5e8d4;strokeColor=#82b366;" vertex="1" parent="1">
          <mxGeometry x="940" y="1960" width="120" height="60" as="geometry" />
        </mxCell>
        <mxCell id="_JYv_TNie-j4nXrY027b-33" style="edgeStyle=orthogonalEdgeStyle;rounded=0;orthogonalLoop=1;jettySize=auto;html=1;strokeColor=#9AC7BF;exitX=0.5;exitY=1;exitDx=0;exitDy=0;entryX=0.5;entryY=0;entryDx=0;entryDy=0;" edge="1" parent="1">
          <mxGeometry relative="1" as="geometry">
            <mxPoint x="999.5" y="1890" as="sourcePoint" />
            <mxPoint x="999.5" y="1960" as="targetPoint" />
            <Array as="points" />
          </mxGeometry>
        </mxCell>
        <mxCell id="_JYv_TNie-j4nXrY027b-34" value="JobExecTask(END)" style="whiteSpace=wrap;html=1;rounded=1;shadow=1;labelBackgroundColor=none;strokeWidth=1;fontFamily=Verdana;fontSize=12;align=center;fillColor=#d5e8d4;strokeColor=#82b366;" vertex="1" parent="1">
          <mxGeometry x="1420" y="1430" width="120" height="60" as="geometry" />
        </mxCell>
        <mxCell id="_JYv_TNie-j4nXrY027b-35" value="&lt;span&gt;StageExecStask(END)&lt;/span&gt;" style="whiteSpace=wrap;html=1;rounded=1;shadow=1;labelBackgroundColor=none;strokeWidth=1;fontFamily=Verdana;fontSize=12;align=center;fillColor=#fff2cc;strokeColor=#d6b656;" vertex="1" parent="1">
          <mxGeometry x="1410" y="1566" width="140" height="60" as="geometry" />
        </mxCell>
        <mxCell id="_JYv_TNie-j4nXrY027b-36" value="&lt;span style=&quot;font-size: 15px&quot;&gt;&lt;b&gt;Physical&lt;/b&gt;&lt;/span&gt;" style="text;html=1;align=center;verticalAlign=middle;resizable=0;points=[];autosize=1;" vertex="1" parent="1">
          <mxGeometry x="1195" y="1420" width="80" height="20" as="geometry" />
        </mxCell>
        <mxCell id="_JYv_TNie-j4nXrY027b-37" value="&lt;span&gt;ComputationCodeLogicalTask&lt;/span&gt;" style="whiteSpace=wrap;html=1;rounded=1;shadow=1;labelBackgroundColor=none;strokeWidth=1;fontFamily=Verdana;fontSize=12;align=center;fillColor=#ffe6cc;strokeColor=#d79b00;" vertex="1" parent="1">
          <mxGeometry x="1360" y="1700" width="240" height="60" as="geometry" />
        </mxCell>
        <mxCell id="_JYv_TNie-j4nXrY027b-38" style="edgeStyle=orthogonalEdgeStyle;rounded=0;orthogonalLoop=1;jettySize=auto;html=1;exitX=0.5;exitY=0;exitDx=0;exitDy=0;strokeColor=#9AC7BF;" edge="1" parent="1" target="_JYv_TNie-j4nXrY027b-37">
          <mxGeometry relative="1" as="geometry">
            <mxPoint x="1479.29" y="1630" as="sourcePoint" />
            <mxPoint x="1479.29" y="1540" as="targetPoint" />
            <Array as="points" />
          </mxGeometry>
        </mxCell>
        <mxCell id="_JYv_TNie-j4nXrY027b-39" style="edgeStyle=orthogonalEdgeStyle;rounded=0;orthogonalLoop=1;jettySize=auto;html=1;exitX=0.5;exitY=1;exitDx=0;exitDy=0;strokeColor=#9AC7BF;entryX=0.5;entryY=0;entryDx=0;entryDy=0;" edge="1" parent="1" source="_JYv_TNie-j4nXrY027b-34" target="_JYv_TNie-j4nXrY027b-35">
          <mxGeometry relative="1" as="geometry">
            <mxPoint x="1470" y="1490" as="sourcePoint" />
            <mxPoint x="1470.71" y="1560" as="targetPoint" />
            <Array as="points" />
          </mxGeometry>
        </mxCell>
        <mxCell id="_JYv_TNie-j4nXrY027b-40" value="&lt;span&gt;StageExecTtask(Start)&lt;/span&gt;" style="whiteSpace=wrap;html=1;rounded=1;shadow=1;labelBackgroundColor=none;strokeWidth=1;fontFamily=Verdana;fontSize=12;align=center;fillColor=#fff2cc;strokeColor=#d6b656;" vertex="1" parent="1">
          <mxGeometry x="1410" y="1830" width="140" height="60" as="geometry" />
        </mxCell>
        <mxCell id="_JYv_TNie-j4nXrY027b-41" style="edgeStyle=orthogonalEdgeStyle;rounded=0;orthogonalLoop=1;jettySize=auto;html=1;strokeColor=#9AC7BF;exitX=0.5;exitY=1;exitDx=0;exitDy=0;entryX=0.5;entryY=0;entryDx=0;entryDy=0;" edge="1" parent="1" source="_JYv_TNie-j4nXrY027b-37" target="_JYv_TNie-j4nXrY027b-40">
          <mxGeometry relative="1" as="geometry">
            <mxPoint x="1476" y="1780" as="sourcePoint" />
            <mxPoint x="1476" y="1830" as="targetPoint" />
            <Array as="points" />
          </mxGeometry>
        </mxCell>
        <mxCell id="_JYv_TNie-j4nXrY027b-42" value="JobExecTask(Start)" style="whiteSpace=wrap;html=1;rounded=1;shadow=1;labelBackgroundColor=none;strokeWidth=1;fontFamily=Verdana;fontSize=12;align=center;fillColor=#d5e8d4;strokeColor=#82b366;" vertex="1" parent="1">
          <mxGeometry x="1420" y="1960" width="120" height="60" as="geometry" />
        </mxCell>
        <mxCell id="_JYv_TNie-j4nXrY027b-43" style="edgeStyle=orthogonalEdgeStyle;rounded=0;orthogonalLoop=1;jettySize=auto;html=1;strokeColor=#9AC7BF;exitX=0.5;exitY=1;exitDx=0;exitDy=0;entryX=0.5;entryY=0;entryDx=0;entryDy=0;" edge="1" parent="1">
          <mxGeometry relative="1" as="geometry">
            <mxPoint x="1479.5" y="1890" as="sourcePoint" />
            <mxPoint x="1479.5" y="1960" as="targetPoint" />
            <Array as="points" />
          </mxGeometry>
        </mxCell>
      </root>
    </mxGraphModel>
  </diagram>
</mxfile>
